<?xml version="1.0" encoding="utf-8"?>
<!-- Generator: Adobe Illustrator 16.0.0, SVG Export Plug-In . SVG Version: 6.00 Build 0)  -->
<!DOCTYPE svg PUBLIC "-//W3C//DTD SVG 1.1//EN" "http://www.w3.org/Graphics/SVG/1.1/DTD/svg11.dtd">
<svg version="1.1" id="Layer_1" xmlns="http://www.w3.org/2000/svg" xmlns:xlink="http://www.w3.org/1999/xlink" x="0px" y="0px"
	 width="814px" height="122.707px" viewBox="0 0 814 122.707" enable-background="new 0 0 814 122.707" xml:space="preserve">
<g>
	<path fill="#FFFFFF" d="M70.777,59.211c0,0.285,0.174,0.542,0.518,0.774c10.74,5.369,16.109,14.622,16.109,27.759
		c0,11.08-3.774,19.449-11.31,25.104c-7.541,5.658-17.427,8.482-29.652,8.482H2.916c-1.947,0-2.916-0.97-2.916-2.908V4.289
		c0-1.943,0.969-2.912,2.916-2.912h42.157c27.081,0,40.612,10.967,40.612,32.897c0,11.542-4.793,19.658-14.39,24.337
		C70.951,58.73,70.777,58.925,70.777,59.211z M24.163,23.136v26.396c0,0.684,0.348,1.024,1.031,1.024h19.879
		c5.37,0,9.535-1.256,12.513-3.77c2.97-2.511,4.453-5.936,4.453-10.281c0-4.457-1.483-7.971-4.453-10.543
		c-2.979-2.565-7.143-3.857-12.513-3.857H25.194C24.511,22.104,24.163,22.456,24.163,23.136z M58.783,96.4
		c2.971-2.686,4.458-6.37,4.458-11.054c0-4.687-1.487-8.367-4.458-11.056c-2.979-2.685-7.139-4.029-12.508-4.029H25.194
		c-0.683,0-1.031,0.352-1.031,1.035v28.099c0,0.69,0.348,1.036,1.031,1.036h21.248C51.698,100.432,55.805,99.085,58.783,96.4z"/>
	<path fill="#FFFFFF" d="M169.315,119.117l-21.08-46.621c-0.228-0.572-0.625-0.859-1.198-0.859h-15.591
		c-0.684,0-1.031,0.344-1.031,1.029v45.758c0,1.938-0.97,2.908-2.909,2.908h-18.341c-1.944,0-2.914-0.97-2.914-2.908V4.114
		c0-1.938,0.97-2.912,2.914-2.912h48.159c7.306,0,13.735,1.52,19.283,4.537c5.529,3.032,9.813,7.287,12.852,12.769
		c3.025,5.489,4.545,11.771,4.545,18.855c0,7.769-1.954,14.455-5.832,20.049c-3.895,5.599-9.263,9.541-16.114,11.826
		c-0.346,0.109-0.571,0.314-0.679,0.602c-0.116,0.283-0.059,0.541,0.173,0.773l22.626,47.286c0.333,0.464,0.507,0.986,0.507,1.549
		c0,0.58-0.232,1.028-0.681,1.376c-0.463,0.334-1.099,0.508-1.895,0.508h-19.355C171.262,121.332,170.119,120.591,169.315,119.117z
		 M130.416,23.136V51.93c0,0.685,0.347,1.025,1.031,1.025h22.277c4.799,0,8.711-1.394,11.738-4.198
		C168.488,45.96,170,42.274,170,37.704c0-4.566-1.513-8.312-4.539-11.224c-3.027-2.917-6.939-4.376-11.738-4.376h-22.277
		C130.763,22.104,130.416,22.456,130.416,23.136z"/>
	<path fill="#FFFFFF" d="M211.473,118.423V4.289c0-1.943,0.969-2.912,2.923-2.912h18.338c1.939,0,2.909,0.969,2.909,2.912v114.134
		c0,1.938-0.97,2.908-2.909,2.908h-18.338C212.442,121.332,211.473,120.362,211.473,118.423z"/>
	<path fill="#FFFFFF" d="M275.228,117.479c-6.744-3.487-11.94-8.367-15.587-14.647c-3.663-6.285-5.5-13.545-5.5-21.765V41.478
		c0-8.229,1.837-15.479,5.5-21.772c3.646-6.275,8.843-11.133,15.587-14.567C281.958,1.715,289.789,0,298.704,0
		c8.801,0,16.53,1.633,23.229,4.889c6.673,3.256,11.884,7.881,15.586,13.877c3.722,5.999,5.575,12.942,5.575,20.823
		c0,1.031-0.914,1.658-2.75,1.889l-18.338,1.197h-0.681c-1.606,0-2.402-0.281-2.402-0.856v-1.032c0-6.054-1.854-10.906-5.571-14.567
		c-3.706-3.654-8.6-5.478-14.648-5.478c-6.165,0-11.117,1.824-14.819,5.478c-3.72,3.662-5.574,8.514-5.574,14.567v41.302
		c0,5.941,1.854,10.738,5.574,14.395c3.703,3.663,8.654,5.489,14.819,5.489c6.049,0,10.943-1.826,14.648-5.489
		c3.717-3.654,5.571-8.452,5.571-14.395c0-0.572,0.26-1.053,0.766-1.459c0.523-0.396,1.23-0.534,2.156-0.422l18.325,0.857
		c1.953,0.229,2.925,0.506,2.925,0.855v0.851c0,7.89-1.854,14.854-5.575,20.914c-3.702,6.053-8.914,10.741-15.586,14.056
		c-6.7,3.305-14.428,4.965-23.229,4.965C289.789,122.707,281.958,120.97,275.228,117.479z"/>
	<path fill="#FFFFFF" d="M360.737,118.423V4.289c0-1.943,0.969-2.912,2.923-2.912h18.339c1.938,0,2.907,0.969,2.907,2.912v46.785
		c0,0.459,0.146,0.745,0.435,0.857c0.276,0.113,0.536,0,0.754-0.34l39.076-48.5c0.813-1.143,2.013-1.714,3.604-1.714h20.755
		c0.77,0,1.419,0.144,1.867,0.422c0.464,0.285,0.695,0.721,0.695,1.292c0,0.452-0.274,1.079-0.869,1.882l-37.341,47.642
		c-0.363,0.34-0.363,0.799,0,1.371l39.57,63.913c0.332,0.464,0.505,0.986,0.505,1.549c0,1.263-0.78,1.884-2.4,1.884h-20.727
		c-1.476,0-2.619-0.621-3.431-1.884l-29.977-48.669c-0.114-0.341-0.348-0.518-0.706-0.518c-0.334,0-0.609,0.177-0.826,0.518
		l-10.464,13.37c-0.348,0.458-0.522,0.858-0.522,1.197v33.075c0,1.939-0.969,2.908-2.907,2.908H363.66
		C361.706,121.332,360.737,120.362,360.737,118.423z"/>
	<path fill="#FFFFFF" d="M548.383,22.104h-55.172c-0.695,0-1.043,0.352-1.043,1.032v26.222c0,0.684,0.348,1.032,1.043,1.032h35.807
		c1.939,0,2.91,0.969,2.91,2.909v14.91c0,1.945-0.971,2.916-2.91,2.916h-35.807c-0.695,0-1.043,0.342-1.043,1.031v27.418
		c0,0.682,0.348,1.023,1.043,1.023h55.172c1.938,0,2.925,0.979,2.925,2.914v14.912c0,1.938-0.985,2.908-2.925,2.908h-77.462
		c-1.938,0-2.909-0.97-2.909-2.908V4.289c0-1.943,0.972-2.912,2.909-2.912h77.462c1.938,0,2.925,0.969,2.925,2.912V19.2
		C551.308,21.135,550.321,22.104,548.383,22.104z"/>
	<path fill="#FFFFFF" d="M631.17,119.117l-21.088-46.621c-0.218-0.572-0.62-0.859-1.188-0.859h-15.602
		c-0.68,0-1.028,0.344-1.028,1.029v45.758c0,1.938-0.971,2.908-2.909,2.908h-18.351c-1.926,0-2.896-0.97-2.896-2.908V4.114
		c0-1.938,0.97-2.912,2.896-2.912h48.165c7.324,0,13.736,1.52,19.28,4.537c5.542,3.032,9.827,7.287,12.853,12.769
		c3.025,5.489,4.543,11.771,4.543,18.855c0,7.769-1.938,14.455-5.831,20.049c-3.881,5.599-9.25,9.541-16.108,11.826
		c-0.334,0.109-0.563,0.314-0.683,0.602c-0.114,0.283-0.058,0.541,0.176,0.773l22.622,47.286c0.346,0.464,0.506,0.986,0.506,1.549
		c0,0.58-0.219,1.028-0.682,1.376c-0.462,0.334-1.086,0.508-1.881,0.508H634.6C633.109,121.332,631.966,120.591,631.17,119.117z
		 M592.266,23.136V51.93c0,0.685,0.35,1.025,1.028,1.025h22.275c4.803,0,8.711-1.394,11.751-4.198
		c3.024-2.797,4.546-6.483,4.546-11.053c0-4.566-1.521-8.312-4.546-11.224c-3.04-2.917-6.948-4.376-11.751-4.376h-22.275
		C592.614,22.104,592.266,22.456,592.266,23.136z"/>
</g>
<rect x="694.446" y="0.871" fill="#EB4646" width="56" height="56"/>
<rect x="758" y="33.484" fill="#EB4646" width="56" height="56"/>
<rect x="694.446" y="65.837" fill="#EB4646" width="56" height="56"/>
</svg>
